<svg width="24" height="24" viewBox="0 0 24 24" fill="none" xmlns="http://www.w3.org/2000/svg">
<g clip-path="url(#clip0)">
<path d="M13.3256 11.9992L23.7252 22.3988C24.0913 22.7649 24.0913 23.3586 23.7252 23.7247C23.359 24.0908 22.7654 24.0908 22.3993 23.7247L11.9997 13.3251L1.60022 23.7247C1.23408 24.0908 0.640454 24.0908 0.274361 23.7247C-0.0917323 23.3585 -0.0917791 22.7649 0.274361 22.3988L10.6739 11.9993L0.274361 1.5997C-0.0917791 1.23356 -0.0917791 0.63994 0.274361 0.273848C0.457407 0.0908012 0.69736 -0.00069809 0.937313 -0.00069809C1.17727 -0.00069809 1.41717 0.0908012 1.60026 0.273848L11.9997 10.6734L22.3993 0.273848C22.5823 0.0908012 22.8223 -0.00069809 23.0622 -0.00069809C23.3022 -0.00069809 23.5421 0.0908012 23.7252 0.273848C24.0913 0.639988 24.0913 1.23361 23.7252 1.5997L13.3256 11.9992Z" fill="#0F175A"/>
</g>
<defs>
<clipPath id="clip0">
<rect width="24" height="24" fill="white" transform="matrix(1 0 0 -1 0 24)"/>
</clipPath>
</defs>
</svg>
